HIERARCHY
ROOT Hips
{
  OFFSET 49.3424 86.4471 8.1831
  CHANNELS 6 Xposition Yposition Zposition Zrotation Xrotation Yrotation
  JOINT spine
  {
    OFFSET 0 6.84637 0.3937
    CHANNELS 3 Zrotation Xrotation Yrotation
    JOINT spine1
    {
      OFFSET 0 9.49621 0
      CHANNELS 3 Zrotation Xrotation Yrotation
      JOINT spine2
      {
        OFFSET 0 9.09909 0
        CHANNELS 3 Zrotation Xrotation Yrotation
        JOINT Neck
        {
          OFFSET 0 23.3612 1.11378
          CHANNELS 3 Zrotation Xrotation Yrotation
          JOINT Head
          {
            OFFSET 0 7.05802 0
            CHANNELS 3 Zrotation Xrotation Yrotation
            End Site
            {
              OFFSET 0 17.0844 -5.63419
            }
          }
        }
        JOINT RightShoulder
        {
          OFFSET -3.83136 9.82631 -0.533491
          CHANNELS 3 Zrotation Xrotation Yrotation
          JOINT RightArm
          {
            OFFSET 0 12.8881 0
            CHANNELS 3 Zrotation Xrotation Yrotation
            JOINT RightArmRoll
            {
              OFFSET 0 6.50617 0
              CHANNELS 3 Zrotation Xrotation Yrotation
              JOINT RightForeArm
              {
                OFFSET 0 18.9501 0
                CHANNELS 3 Zrotation Xrotation Yrotation
                JOINT RightForeArmRoll
                {
                  OFFSET 0 7.30092 0
                  CHANNELS 3 Zrotation Xrotation Yrotation
                  JOINT RightHand
                  {
                    OFFSET 0 14.6514 0
                    CHANNELS 3 Zrotation Xrotation Yrotation
                    End Site
                    {
                      OFFSET 0 0 0
                    }
                  }
                }
              }
            }
          }
        }
        JOINT LeftShoulder
        {
          OFFSET 3.83136 9.82631 -0.533491
          CHANNELS 3 Zrotation Xrotation Yrotation
          JOINT LeftArm
          {
            OFFSET 0 12.8881 0
            CHANNELS 3 Zrotation Xrotation Yrotation
            JOINT LeftArmRoll
            {
              OFFSET 0 6.50617 0
              CHANNELS 3 Zrotation Xrotation Yrotation
              JOINT LeftForeArm
              {
                OFFSET 0 18.9501 0
                CHANNELS 3 Zrotation Xrotation Yrotation
                JOINT LeftForeArmRoll
                {
                  OFFSET 0 7.30093 0
                  CHANNELS 3 Zrotation Xrotation Yrotation
                  JOINT LeftHand
                  {
                    OFFSET 0 14.6514 0
                    CHANNELS 3 Zrotation Xrotation Yrotation
                    End Site
                    {
                      OFFSET 0 0 0
                    }
                  }
                }
              }
            }
          }
        }
      }
    }
  }
  JOINT RightUpLeg
  {
    OFFSET -6.06837 -1.11278 -0.933477
    CHANNELS 3 Zrotation Xrotation Yrotation
    JOINT RightUpLegRoll
    {
      OFFSET 0 17.1796 0
      CHANNELS 3 Zrotation Xrotation Yrotation
      JOINT RightLeg
      {
        OFFSET 0 -21.2743 0
        CHANNELS 3 Zrotation Xrotation Yrotation
        JOINT RightLegRoll
        {
          OFFSET 0 21.3439 0
          CHANNELS 3 Zrotation Xrotation Yrotation
          JOINT RightFoot
          {
            OFFSET 0 17.7652 0
            CHANNELS 3 Zrotation Xrotation Yrotation
            JOINT RightToeBase
            {
              OFFSET 0 14.8508 0
              CHANNELS 3 Zrotation Xrotation Yrotation
              End Site
              {
                OFFSET 0.0062947 7.19213 -0.829005
              }
            }
          }
        }
      }
    }
  }
  JOINT LeftUpLeg
  {
    OFFSET 6.06837 -1.11278 -0.933477
    CHANNELS 3 Zrotation Xrotation Yrotation
    JOINT LeftUpLegRoll
    {
      OFFSET 0 17.1797 0
      CHANNELS 3 Zrotation Xrotation Yrotation
      JOINT LeftLeg
      {
        OFFSET 0 21.2742 0
        CHANNELS 3 Zrotation Xrotation Yrotation
        JOINT LeftLegRoll
        {
          OFFSET 0 21.5412 0
          CHANNELS 3 Zrotation Xrotation Yrotation
          JOINT LeftFoot
          {
            OFFSET 0 17.5679 0
            CHANNELS 3 Zrotation Xrotation Yrotation
            JOINT LeftToeBase
            {
              OFFSET 0 14.8508 0
              CHANNELS 3 Zrotation Xrotation Yrotation
              End Site
              {
                OFFSET -0.0282102 7.19214 -0.829005
              }
            }
          }
        }
      }
    }
  }
}
MOTION
Frames: 10
Frame Time: 0.00208333
49.8546 86.4158 6.20968 -0.482965 -3.46466 -1.21052 1.51054 -1.55581 1.35449 3.04427 0.925246 2.5634 3.0154 2.56831 2.51363 -18.4796 3.18678 1.88685 8.56332 10.1194 -2.18238 46.1613 -6.24035 -3.16955 154.968 43.4061 -70.7399 -3.85207e-005 4.99561e-006 -9.80536e-007 18.7962 43.9468 -4.00357 -8.79086e-006 -7.92546e-006 -3.00512 8.02902 -4.95146 0.697684 -75.2161 -6.84573 4.85673 -144.808 52.9948 38.2278 -8.11089e-007 1.60124e-006 -5.11654e-007 -29.2134 30.0924 9.36604 6.68568e-006 -1.14009e-007 3.00896 -8.02893 -4.95143 -0.697696 -178.952 13.4274 -3.23298 180 7.01468e-015 178.621 176.513 24.6398 -179.742 4.1201e-007 -1.61971e-006 0.751399 -23.8474 70.977 22.6232 8.13649 25.2327 -3.48774 -175.252 11.9044 -2.0361 4.54188e-006 -4.6773e-006 -0.769027 -1.69811 -26.2538 0.555617 -8.51954e-006 -2.07363e-006 -0.433928 21.3387 73.8164 -25.4894 -8.13649 25.2327 3.48774 
49.8549 86.4177 6.20691 -0.479167 -3.4559 -1.20739 1.50913 -1.55535 1.35347 3.04073 0.925819 2.56201 3.01188 2.56889 2.5123 -18.4659 3.15463 1.90216 8.54554 10.1147 -2.15826 46.125 -6.23349 -3.16208 154.882 43.3649 -70.5808 -3.85207e-005 4.99561e-006 -9.80536e-007 18.7108 44.0362 -3.9922 -8.79085e-006 -7.92546e-006 -3.00512 8.02902 -4.95146 0.697684 -75.1717 -6.84046 4.85283 -144.691 52.758 38.7774 -8.11089e-007 1.60124e-006 -5.11654e-007 -29.596 30.5281 9.56261 6.68568e-006 -1.14009e-007 3.00896 -8.02893 -4.95143 -0.697696 -178.957 13.4389 -3.22967 180 7.01468e-015 178.621 176.512 24.6428 -179.741 4.1201e-007 -1.61971e-006 0.751424 -23.8506 70.9772 22.6261 8.13649 25.2327 -3.48774 -175.256 11.9137 -2.03198 4.54188e-006 -4.6773e-006 -0.76919 -1.69881 -26.2517 0.555396 -8.51954e-006 -2.07363e-006 -0.433807 21.337 73.8143 -25.487 -8.13649 25.2327 3.48774 
49.8573 86.4149 6.20336 -0.475994 -3.44709 -1.20418 1.50793 -1.55513 1.35257 3.03776 0.925817 2.56066 3.00892 2.56889 2.511 -18.4526 3.1276 1.91887 8.52698 10.1072 -2.13346 46.0946 -6.22844 -3.15638 154.791 43.3239 -70.4692 -3.85207e-005 4.99561e-006 -9.80536e-007 18.6289 44.1267 -3.97534 -8.79086e-006 -7.92546e-006 -3.00511 8.02902 -4.95146 0.697684 -75.134 -6.83633 4.84968 -144.585 52.5367 39.3208 -8.11089e-007 1.60124e-006 -5.11654e-007 -29.9583 30.9413 9.74906 6.68568e-006 -1.14009e-007 3.00896 -8.02893 -4.95143 -0.697696 -178.961 13.4502 -3.22734 180 7.01468e-015 178.622 176.511 24.6451 -179.74 4.1201e-007 -1.61971e-006 0.751448 -23.8529 70.9769 22.6279 8.13649 25.2327 -3.48774 -175.26 11.9233 -2.02847 4.54188e-006 -4.6773e-006 -0.769311 -1.6996 -26.2495 0.55514 -8.51954e-006 -2.07363e-006 -0.433681 21.3349 73.812 -25.484 -8.13649 25.2327 3.48774 
49.856 86.4164 6.20464 -0.473585 -3.43825 -1.20094 1.50699 -1.55516 1.35179 3.03545 0.925182 2.55936 3.00663 2.56825 2.50973 -18.4401 3.10633 1.93716 8.50762 10.0966 -2.10789 46.071 -6.2254 -3.15265 154.698 43.2826 -70.416 -3.85207e-005 4.99561e-006 -9.80536e-007 18.5525 44.2181 -3.95218 -8.79086e-006 -7.92546e-006 -3.0051 8.02902 -4.95146 0.697684 -75.104 -6.83349 4.84737 -144.496 52.3345 39.8569 -8.11089e-007 1.60124e-006 -5.11654e-007 -30.2944 31.3243 9.92164 6.68568e-006 -1.14009e-007 3.00896 -8.02893 -4.95143 -0.697696 -178.964 13.4611 -3.2262 180 7.01468e-015 178.622 176.51 24.6465 -179.74 4.1201e-007 -1.61971e-006 0.751472 -23.854 70.9762 22.6287 8.13649 25.2327 -3.48774 -175.262 11.933 -2.02575 4.54188e-006 -4.6773e-006 -0.769377 -1.7005 -26.2473 0.554837 -8.51954e-006 -2.07363e-006 -0.433549 21.3323 73.8095 -25.4806 -8.13649 25.2327 3.48774 
49.8553 86.413 6.19508 -0.471828 -3.42913 -1.19741 1.50629 -1.55549 1.35112 3.03378 0.923761 2.55804 3.00497 2.56684 2.50844 -18.4285 3.09146 1.95713 8.48771 10.082 -2.08155 46.0538 -6.22441 -3.15093 154.59 43.2423 -70.4085 -3.85207e-005 4.99561e-006 -9.80536e-007 18.4746 44.3146 -3.9212 -8.79085e-006 -7.92546e-006 -3.0051 8.02902 -4.95146 0.697684 -75.0808 -6.8318 4.84581 -144.413 52.1449 40.3933 -8.11089e-007 1.60124e-006 -5.11654e-007 -30.6124 31.6951 10.0867 6.68568e-006 -1.14009e-007 3.00896 -8.02893 -4.95143 -0.697696 -178.966 13.4721 -3.22613 180 7.01468e-015 178.622 176.509 24.6471 -179.74 4.1201e-007 -1.61971e-006 0.751496 -23.8539 70.9749 22.6284 8.13649 25.2327 -3.48774 -175.264 11.9432 -2.02352 4.54188e-006 -4.6773e-006 -0.769408 -1.70144 -26.245 0.554521 -8.51954e-006 -2.07363e-006 -0.433411 21.329 73.8067 -25.4764 -8.13649 25.2327 3.48774 
49.8547 86.409 6.196 -0.470445 -3.41944 -1.19335 1.50576 -1.55613 1.35053 3.03258 0.921494 2.55666 3.00378 2.56457 2.50708 -18.4177 3.08274 1.97862 8.46752 10.0628 -2.05451 46.0417 -6.22534 -3.15102 154.455 43.2046 -70.4219 -3.85207e-005 4.99561e-006 -9.80536e-007 18.387 44.4208 -3.88199 -8.79086e-006 -7.92546e-006 -3.00509 8.02902 -4.95146 0.697684 -75.0622 -6.83095 4.84479 -144.317 51.9574 40.9383 -8.11089e-007 1.60124e-006 -5.11654e-007 -30.9265 32.0788 10.2546 6.68568e-006 -1.14009e-007 3.00896 -8.02893 -4.95143 -0.697696 -178.967 13.4838 -3.22677 180 7.01468e-015 178.622 176.509 24.6472 -179.74 4.1201e-007 -1.61971e-006 0.751519 -23.8528 70.9731 22.6272 8.13649 25.2327 -3.48774 -175.266 11.9542 -2.02129 4.54188e-006 -4.6773e-006 -0.769435 -1.70234 -26.2423 0.554233 -8.51954e-006 -2.07363e-006 -0.433273 21.325 73.8036 -25.4712 -8.13649 25.2327 3.48774 
49.8549 86.4185 6.19807 -0.46939 -3.40928 -1.18882 1.50539 -1.55706 1.34999 3.03178 0.918486 2.55523 3.003 2.56156 2.50566 -18.4077 3.07945 2.00146 8.44698 10.0398 -2.02681 46.0343 -6.22803 -3.15276 154.296 43.1697 -70.454 -3.85207e-005 4.99561e-006 -9.80536e-007 18.2912 44.5352 -3.8357 -8.79086e-006 -7.92546e-006 -3.00508 8.02902 -4.95146 0.697684 -75.0478 -6.83092 4.84428 -144.211 51.7718 41.49 -8.11089e-007 1.60124e-006 -5.11654e-007 -31.2371 32.4731 10.425 6.68568e-006 -1.14009e-007 3.00896 -8.02893 -4.95143 -0.697696 -178.968 13.4959 -3.22803 180 7.01468e-015 178.622 176.508 24.6469 -179.739 4.1201e-007 -1.61971e-006 0.751542 -23.8508 70.9709 22.6252 8.13649 25.2327 -3.48774 -175.267 11.9657 -2.01908 4.54188e-006 -4.6773e-006 -0.76946 -1.70321 -26.2392 0.553966 -8.51954e-006 -2.07363e-006 -0.433135 21.3203 73.8001 -25.4654 -8.13649 25.2327 3.48774 
49.8552 86.4181 6.19472 -0.468614 -3.39873 -1.18391 1.50514 -1.55824 1.34952 3.03134 0.914845 2.55376 3.00257 2.55792 2.50419 -18.3981 3.08086 2.0255 8.426 10.0135 -1.9985 46.0311 -6.23231 -3.156 154.118 43.1376 -70.5026 -3.85207e-005 4.99561e-006 -9.80536e-007 18.1887 44.6561 -3.78345 -8.79085e-006 -7.92546e-006 -3.00508 8.02902 -4.95146 0.697684 -75.0374 -6.83168 4.84426 -144.095 51.5885 42.0466 -8.11089e-007 1.60124e-006 -5.11654e-007 -31.5441 32.8758 10.5975 6.68568e-006 -1.14009e-007 3.00896 -8.02893 -4.95143 -0.697696 -178.968 13.5085 -3.2298 180 7.01468e-015 178.623 176.508 24.6461 -179.74 4.1201e-007 -1.61971e-006 0.751564 -23.8479 70.9683 22.6225 8.13649 25.2327 -3.48774 -175.269 11.9777 -2.0169 4.54188e-006 -4.6773e-006 -0.769482 -1.70407 -26.2359 0.553712 -8.51954e-006 -2.07363e-006 -0.432997 21.3152 73.7963 -25.4589 -8.13649 25.2327 3.48774 
49.8575 86.4158 6.19214 -0.46807 -3.38788 -1.17868 1.50501 -1.55961 1.34909 3.03119 0.910678 2.55226 3.00243 2.55376 2.50269 -18.3888 3.08626 2.05056 8.40451 9.98454 -1.96965 46.0316 -6.23805 -3.1606 153.924 43.1085 -70.5654 -3.85207e-005 4.99561e-006 -9.80536e-007 18.0813 44.7819 -3.7264 -8.79086e-006 -7.92546e-006 -3.00507 8.02902 -4.95146 0.697684 -75.0306 -6.83317 4.84469 -143.971 51.4074 42.6062 -8.11089e-007 1.60124e-006 -5.11654e-007 -31.8476 33.2844 10.7717 6.68568e-006 -1.14009e-007 3.00896 -8.02893 -4.95143 -0.697696 -178.968 13.5213 -3.232 180 7.01468e-015 178.623 176.508 24.645 -179.74 4.1201e-007 -1.61971e-006 0.751586 -23.8444 70.9655 22.6193 8.13649 25.2327 -3.48774 -175.27 11.9901 -2.01475 4.54188e-006 -4.6773e-006 -0.769502 -1.70492 -26.2323 0.553464 -8.51954e-006 -2.07363e-006 -0.432859 21.3096 73.7923 -25.4518 -8.13649 25.2327 3.48774 
49.8561 86.4175 6.19114 -0.467709 -3.37681 -1.17321 1.50497 -1.56116 1.34871 3.03127 0.90609 2.55074 3.00253 2.54917 2.50118 -18.3796 3.09491 2.07649 8.38244 9.9535 -1.94029 46.0353 -6.24508 -3.16641 153.717 43.0824 -70.6402 -3.85207e-005 4.99561e-006 -9.80536e-007 17.9704 44.9111 -3.6657 -8.79086e-006 -7.92546e-006 -3.00506 8.02902 -4.95146 0.697684 -75.0272 -6.83537 4.84556 -143.841 51.2289 43.1671 -8.11089e-007 1.60124e-006 -5.11654e-007 -32.1477 33.6967 10.947 6.68568e-006 -1.14009e-007 3.00896 -8.02893 -4.95143 -0.697696 -178.967 13.5343 -3.23454 180 7.01468e-015 178.623 176.508 24.6436 -179.74 4.1201e-007 -1.61971e-006 0.751608 -23.8403 70.9624 22.6156 8.13649 25.2327 -3.48774 -175.271 12.0028 -2.01265 4.54188e-006 -4.6773e-006 -0.769521 -1.70579 -26.2286 0.553216 -8.51954e-006 -2.07363e-006 -0.432722 21.3038 73.7881 -25.4444 -8.13649 25.2327 3.48774 
